<?xml version="1.0" encoding="UTF-8"?>
<svg id="Layer_1" xmlns="http://www.w3.org/2000/svg" version="1.1" xmlns:xlink="http://www.w3.org/1999/xlink" viewBox="0 0 31.88 32">
  <!-- Generator: Adobe Illustrator 30.1.0, SVG Export Plug-In . SVG Version: 2.1.1 Build 136)  -->
  <defs>
    <style>
      .st0 {
        fill: url(#linear-gradient1);
      }

      .st1 {
        fill: url(#linear-gradient);
      }

      .st2 {
        fill: #020618;
      }
    </style>
    <linearGradient id="linear-gradient" x1="3.07" y1="15.87" x2="28.9" y2="15.69" gradientUnits="userSpaceOnUse">
      <stop offset=".33" stop-color="#fff"/>
      <stop offset=".34" stop-color="#c37aff"/>
      <stop offset="1" stop-color="#f6349b"/>
    </linearGradient>
    <linearGradient id="linear-gradient1" x1="3.08" y1="15.98" x2="28.9" y2="15.81" xlink:href="#linear-gradient"/>
  </defs>
  <rect class="st2" width="31.88" height="32"/>
  <g>
    <path class="st1" d="M-.02,23.91V7.8h9.95v3.8h-5.14v2.35h4.83v3.8h-4.83v2.37h5.5v3.8H-.02Z"/>
    <path class="st0" d="M27.2,23.91v-8.83c0-.83.03-1.74.08-2.74l.03-.74h-.13c-.24,1.27-.42,2.14-.55,2.63l-2.35,9.68h-4.52l-2.46-9.57c-.07-.24-.24-1.15-.52-2.74h-.13c.1,2.52.16,4.09.16,4.72v7.59h-4.22V7.8h7.21l2.2,8.75c.05.18.12.54.21,1.09.09.55.14.97.16,1.27h.07c.08-.68.21-1.49.39-2.41l2.05-8.7h7.1v16.1h-4.75Z"/>
  </g>
</svg>